<svg width="24" height="24" viewBox="0 0 24 24" fill="none" xmlns="http://www.w3.org/2000/svg">
  <path d="M11.998 24c-.321 0-.643-.084-.92-.247l-2.93-1.74c-.437-.246-.224-.332-.08-.383.584-.204.702-.25 1.324-.604.065-.037.151-.023.219.016l2.252 1.339c.082.045.197.045.273 0l8.794-5.08c.082-.046.134-.138.134-.234V6.908c0-.098-.052-.19-.137-.236l-8.79-5.077a.271.271 0 00-.27 0L2.072 6.673c-.085.047-.139.139-.139.236v10.16c0 .096.054.187.139.234l2.41 1.394c1.307.654 2.108-.117 2.108-.892V7.788c0-.142.114-.254.256-.254h1.115c.139 0 .254.112.254.254v10.017c0 1.745-.95 2.745-2.604 2.745-.508 0-.908 0-2.026-.55L1.309 18.665c-.57-.328-.92-.945-.92-1.604V6.901c0-.66.352-1.277.92-1.605L10.103.217a1.935 1.935 0 011.838 0l8.794 5.08c.57.327.92.945.92 1.604v10.16c0 .659-.35 1.273-.92 1.604l-8.794 5.08a1.823 1.823 0 01-.92.247l-.022.008zm2.718-6.993c-3.85 0-4.654-1.768-4.654-3.252 0-.14.114-.254.256-.254h1.136c.127 0 .232.091.245.214.168 1.139.672 1.714 3.017 1.714 1.856 0 2.647-.42 2.647-1.409 0-.57-.225-.993-3.108-1.277-2.403-.238-3.889-.768-3.889-2.69 0-1.773 1.491-2.828 3.99-2.828 2.807 0 4.197.974 4.374 3.065.007.073-.019.143-.068.197a.26.26 0 01-.197.094h-1.143a.251.251 0 01-.242-.197c-.268-1.194-.92-1.574-2.723-1.574-2.006 0-2.24.7-2.24 1.224 0 .636.275.82 3.013 1.18 2.706.353 3.992.853 3.992 2.727 0 1.89-1.576 2.974-4.325 2.974l-.025.016z" fill="#339933"/>
</svg>