<svg width="24" height="24" viewBox="0 0 24 24" fill="none" xmlns="http://www.w3.org/2000/svg">
  <path d="M11.914 0C5.82 0 6.2 2.656 6.2 2.656l.007 2.719h5.814v.817H3.9S0 5.789 0 11.969s3.403 5.971 3.403 5.971h2.03v-2.876s-.109-3.403 3.35-3.403h5.766s3.24.052 3.24-3.133V3.24S18.244 0 11.914 0zM8.708 1.85c.578 0 1.049.47 1.049 1.048s-.47 1.048-1.049 1.048-1.048-.47-1.048-1.048.47-1.048 1.048-1.048z" fill="#3776AB"/>
  <path d="M12.087 24c6.094 0 5.714-2.656 5.714-2.656l-.007-2.719h-5.814v-.817h8.124s3.896.403 3.896-5.777-3.403-5.971-3.403-5.971h-2.03v2.876s.109 3.403-3.35 3.403h-5.766s-3.24-.052-3.24 3.133v5.288S5.756 24 12.087 24zm3.206-1.85c-.578 0-1.049-.47-1.049-1.048s.47-1.048 1.049-1.048 1.048.47 1.048 1.048-.47 1.048-1.048 1.048z" fill="#FFD43B"/>
</svg>