<svg width="24" height="24" viewBox="0 0 24 24" fill="none" xmlns="http://www.w3.org/2000/svg">
  <path d="M17.340 5.563L21.277 9.500L17.340 13.437L17.340 11.625L14.933 9.218L17.026 7.125L11.964 2.063L6.903 7.125L8.995 9.218L6.589 11.625L6.589 13.437L2.652 9.500L6.589 5.563L6.589 7.375L8.995 9.781L11.089 7.688L6.026 2.625L12.089 2.625L17.026 7.688L14.933 9.781L17.340 7.375L17.340 5.563Z" fill="#0080FF"/>
  <path d="M17.344 18.438L21.281 14.500L17.344 10.563L17.344 12.375L14.937 14.782L17.031 16.875L11.969 21.938L6.906 16.875L9.000 14.782L6.594 12.375L6.594 10.563L2.656 14.500L6.594 18.438L6.594 16.625L9.000 14.219L11.094 16.313L6.031 21.375L12.094 21.375L17.031 16.313L14.937 14.219L17.344 16.625L17.344 18.438Z" fill="#AC7EF4"/>
  <path d="M18.375 11.469L16.281 13.563L18.375 13.563L18.375 11.469Z" fill="#FFF"/>
</svg>