<svg width="24" height="24" viewBox="0 0 24 24" fill="none" xmlns="http://www.w3.org/2000/svg">
  <g fill="#61DAFB">
    <path d="M14.23 12.004a2.236 2.236 0 0 1-2.235 2.236 2.236 2.236 0 0 1-2.236-2.236 2.236 2.236 0 0 1 2.235-2.236 2.236 2.236 0 0 1 2.236 2.236zm2.648-10.69c-1.346 0-3.107.96-4.888 2.622-1.78-1.653-3.542-2.602-4.887-2.602-.41 0-.783.093-1.106.278-1.375.793-1.683 3.264-.973 6.365C1.98 8.917 0 10.42 0 12.004c0 1.59 1.99 3.097 5.043 4.03-.704 3.113-.39 5.588.988 6.38.32.187.69.275 1.102.275 1.345 0 3.107-.96 4.888-2.624 1.78 1.654 3.542 2.603 4.887 2.603.41 0 .783-.09 1.106-.275 1.374-.792 1.683-3.263.973-6.365C22.02 15.096 24 13.59 24 12.004c0-1.59-1.99-3.097-5.043-4.032.704-3.11.39-5.587-.988-6.38a2.167 2.167 0 0 0-1.092-.278zm-.005 1.09v.006c.225 0 .406.044.558.127.666.382.955 1.835.73 3.704-.054.46-.142.945-.25 1.44a23.476 23.476 0 0 0-3.107-.534A23.892 23.892 0 0 0 12.769 4.7c1.592-1.48 3.087-2.292 4.105-2.295zm-9.77.02c1.012 0 2.514.808 4.11 2.28-.686.72-1.37 1.537-2.02 2.442a22.73 22.73 0 0 0-3.113.538 15.02 15.02 0 0 1-.254-1.42c-.23-1.868.054-3.32.714-3.707.19-.09.4-.127.563-.132zm4.882 3.05c.455.468.91.992 1.36 1.564-.44-.02-.89-.034-1.345-.034-.46 0-.915.01-1.36.034.44-.572.895-1.096 1.345-1.565zm-5.22 3.348a23.444 23.444 0 0 0 1.457 2.618 19.773 19.773 0 0 1-1.482 2.682 20.2 20.2 0 0 1-2.435-.406c-.236-.665-.43-1.346-.576-2.03.144-.689.335-1.373.566-2.03.785-.145 1.614-.264 2.47-.424zm10.467 0c.855.16 1.683.279 2.468.424.23.657.422 1.341.567 2.03-.146.684-.34 1.365-.577 2.03a20.233 20.233 0 0 1-2.434.405c-.533-.84-1.07-1.742-1.596-2.682a23.783 23.783 0 0 0 1.572-2.617zm-2.223.21c-.356.41-.715.85-1.076 1.322-.363.48-.73.99-1.1 1.532a18.045 18.045 0 0 1-2.14 0c-.37-.543-.74-1.053-1.1-1.532-.36-.473-.72-.912-1.076-1.323.355-.41.714-.85 1.075-1.32.364-.48.73-.993 1.1-1.533a18.09 18.09 0 0 1 2.14 0c.37.54.74 1.05 1.1 1.53.36.48.72.913 1.076 1.324zm2.596-.67c.265.613.466 1.233.604 1.853a20.02 20.02 0 0 1-1.853.602 24.96 24.96 0 0 0 .625-1.23 25.04 25.04 0 0 0 .624-1.224zm-5.73 0c.206.404.414.812.622 1.224.21.414.42.83.63 1.23a19.91 19.91 0 0 1-1.86-.6c.137-.625.339-1.244.607-1.853zm8.208 2.368c-.02 1.165-1.344 2.197-3.33 2.918a15.86 15.86 0 0 1-.665-2.086 25.712 25.712 0 0 0 2.644-1.087c.46.156.897.317 1.31.48.296.118.577.238.84.355zm-16.414 0c.265-.118.545-.237.84-.355.414-.163.852-.324 1.312-.48a25.633 25.633 0 0 0 2.644 1.087 15.87 15.87 0 0 1-.665 2.086c-1.984-.72-3.308-1.753-3.329-2.918zm8.212 2.467a18.09 18.09 0 0 1 1.07 0c-.332.378-.665.72-.998 1.027-.332-.307-.665-.65-.998-1.027zm-1.09.087c.356.41.715.85 1.077 1.323.362.473.72.913 1.076 1.323-.356.41-.714.85-1.076 1.32-.363.48-.73.993-1.1 1.533a18.045 18.045 0 0 1-2.139 0c-.37-.54-.74-1.05-1.101-1.53a23.71 23.71 0 0 1-1.076-1.324c.355-.41.714-.85 1.076-1.323.363-.48.73-.99 1.1-1.532a18.09 18.09 0 0 1 2.163 0zm-5.074.295a25.71 25.71 0 0 0 2.644 1.087c-.2.705-.397 1.407-.572 2.09-1.927-.694-3.234-1.69-3.36-2.765.262-.113.54-.227.836-.34.415-.16.853-.32 1.316-.48zm13.908 0c.463.16.9.32 1.315.48.296.113.575.227.837.34-.125 1.074-1.432 2.07-3.36 2.765a15.97 15.97 0 0 1-.572-2.09 25.63 25.63 0 0 0 2.644-1.087zm-1.064 2.88c.452.145.885.285 1.295.42-.23 1.859-.662 3.308-1.324 3.69-.147.09-.335.128-.56.128-1.018 0-2.513-.808-4.11-2.28.686-.72 1.372-1.536 2.021-2.44a22.844 22.844 0 0 0 2.678-.517zm-11.817.02a22.73 22.73 0 0 0 2.677.517c.65.904 1.335 1.72 2.021 2.44-1.595 1.472-3.092 2.28-4.11 2.28a.685.685 0 0 1-.56-.128c-.665-.382-1.09-1.83-1.323-3.69.41-.135.843-.275 1.295-.42zm5.913.636c.44.02.89.034 1.345.034.46 0 .915-.01 1.36-.034-.44.572-.895 1.095-1.345 1.565-.455-.47-.91-.993-1.36-1.565z"/>
  </g>
</svg>