<svg width="24" height="24" viewBox="0 0 24 24" fill="none" xmlns="http://www.w3.org/2000/svg">
  <path d="M4.755 4.5v3.9c0 0.5 0.345 1.342 2.857 2.021C9.534 10.85 11.679 11 12 11c0.357 0 2.466-0.15 4.388-0.579 2.512-0.679 2.857-1.521 2.857-2.021V4.5s-7.479 1.064-7.479 2.25C11.766 5.564 4.755 4.5 4.755 4.5z" fill="#DC322F"/>
  <path d="M4.755 8.7v3.9c0 0.5 0.345 1.342 2.857 2.021C9.534 15.05 11.679 15.2 12 15.2c0.357 0 2.466-0.15 4.388-0.579 2.512-0.679 2.857-1.521 2.857-2.021V8.7s-7.479 1.064-7.479 2.25C11.766 9.764 4.755 8.7 4.755 8.7z" fill="#DC322F"/>
  <path d="M4.755 12.9v3.9c0 0.5 0.345 1.342 2.857 2.021C9.534 19.25 11.679 19.4 12 19.4c0.357 0 2.466-0.15 4.388-0.579 2.512-0.679 2.857-1.521 2.857-2.021V12.9s-7.479 1.064-7.479 2.25C11.766 13.964 4.755 12.9 4.755 12.9z" fill="#DC322F"/>
</svg>