<svg width="24" height="24" viewBox="0 0 24 24" fill="none" xmlns="http://www.w3.org/2000/svg">
  <path d="M19.409 4.635C17.521 1.596 13.639.362 10.537 1.804L6.317 4.14a5.308 5.308 0 00-2.405 3.735 5.478 5.478 0 00.384 3.097 4.831 4.831 0 00-.71 2.555 5.44 5.44 0 002.452 4.543 5.642 5.642 0 003.091.635 5.308 5.308 0 002.405 3.735 5.642 5.642 0 003.091.635 5.523 5.523 0 003.046-.915l4.22-2.336a5.308 5.308 0 002.405-3.735 5.478 5.478 0 00-.384-3.097 4.831 4.831 0 00.71-2.555 5.44 5.44 0 00-2.452-4.543 5.642 5.642 0 00-3.091-.635 5.308 5.308 0 00-2.405-3.735z" fill="#FF3E00"/>
  <path d="M11.109 21.155a3.686 3.686 0 01-2.024-.374 3.444 3.444 0 01-1.554-2.878c0-.166.015-.331.046-.493a.407.407 0 01.081-.221.412.412 0 01.197-.142c.409.078.823.117 1.238.117h.037a.406.406 0 01.392.31c.019.089.04.178.064.266a1.154 1.154 0 00.523.77c.252.148.553.201.847.148.146-.026.286-.077.413-.149l4.22-2.336a1.094 1.094 0 00.497-.862 1.171 1.171 0 00-.529-.979 1.193 1.193 0 00-.848-.149 1.156 1.156 0 00-.413.149l-1.614.893a3.523 3.523 0 01-1.941.582 3.685 3.685 0 01-2.024-.374 3.444 3.444 0 01-1.555-2.878 3.356 3.356 0 011.523-2.789l4.22-2.336a3.523 3.523 0 011.941-.582 3.685 3.685 0 012.024.374 3.444 3.444 0 011.555 2.878c0 .166-.015.331-.046.493a.408.408 0 01-.081.221.412.412 0 01-.197.142 5.124 5.124 0 01-1.238-.117h-.037a.406.406 0 01-.392-.31 3.018 3.018 0 01-.064-.266 1.154 1.154 0 00-.523-.77 1.193 1.193 0 00-.848-.149 1.156 1.156 0 00-.413.149l-4.22 2.336a1.094 1.094 0 00-.497.862c0 .407.215.783.529.979.253.148.553.201.848.149.146-.026.286-.077.413-.149l1.613-.893a3.523 3.523 0 011.941-.582 3.685 3.685 0 012.024.374 3.444 3.444 0 011.555 2.878 3.356 3.356 0 01-1.523 2.789l-4.22 2.336a3.523 3.523 0 01-1.941.582z" fill="white"/>
</svg>